<svg width="512" height="391" viewBox="0 0 512 391" fill="none" xmlns="http://www.w3.org/2000/svg">
<path d="M433.43 32.3501C400.796 17.3767 365.802 6.34487 329.214 0.0265047C328.547 -0.0954378 327.882 0.209303 327.539 0.8188C323.038 8.82339 318.053 19.266 314.562 27.4739C275.209 21.5823 236.057 21.5823 197.511 27.4739C194.019 19.0836 188.853 8.82339 184.332 0.8188C183.989 0.229639 183.323 -0.075102 182.657 0.0265047C146.089 6.32468 111.095 17.3565 78.4413 32.3501C78.1586 32.472 77.9163 32.6754 77.7555 32.9393C11.379 132.104 -6.80427 228.832 2.11584 324.36C2.1562 324.828 2.41856 325.275 2.78182 325.559C46.5751 357.72 88.9964 377.244 130.63 390.186C131.296 390.389 132.002 390.145 132.426 389.596C142.275 376.147 151.054 361.966 158.581 347.053C159.025 346.18 158.601 345.144 157.693 344.799C143.768 339.516 130.509 333.076 117.754 325.762C116.745 325.173 116.665 323.73 117.593 323.039C120.277 321.028 122.961 318.935 125.524 316.822C125.988 316.437 126.634 316.355 127.179 316.599C210.971 354.855 301.686 354.855 384.49 316.599C385.035 316.335 385.681 316.416 386.165 316.802C388.728 318.915 391.412 321.028 394.117 323.039C395.045 323.73 394.984 325.173 393.975 325.762C381.221 333.218 367.961 339.516 354.016 344.778C353.108 345.124 352.705 346.18 353.149 347.053C360.837 361.945 369.616 376.126 379.283 389.576C379.687 390.145 380.413 390.389 381.079 390.186C422.915 377.244 465.336 357.72 509.129 325.559C509.513 325.275 509.755 324.848 509.795 324.381C520.471 213.939 491.914 118.005 434.095 32.9595C433.954 32.6754 433.712 32.472 433.43 32.3501Z" fill="#5865F2"/>
<path d="M125.079 214.59C125.079 243.033 145.866 266.194 171.093 266.194C196.722 266.194 217.106 243.033 217.106 214.59C217.51 186.35 196.924 162.986 171.093 162.986C145.462 162.986 125.079 186.146 125.079 214.59Z" fill="white"/>
<path d="M295.207 214.59C295.207 243.033 315.994 266.194 341.22 266.194C367.052 266.194 387.234 243.033 387.234 214.59C387.637 186.35 367.052 162.986 341.22 162.986C315.59 162.986 295.207 186.146 295.207 214.59Z" fill="white"/>
</svg>
